<svg id="svg" version="1.1" xmlns="http://www.w3.org/2000/svg" xmlns:xlink="http://www.w3.org/1999/xlink" width="400" height="400" viewBox="0, 0, 400,400"><g id="svgg"><path id="path0" d="M196.604 92.700 C 194.920 97.925,191.441 108.590,188.871 116.400 C 183.487 132.767,184.557 131.405,178.800 129.220 C 176.930 128.510,174.950 127.781,174.400 127.600 C 173.850 127.419,171.870 126.699,170.000 126.000 C 168.130 125.301,166.150 124.581,165.600 124.400 C 165.050 124.219,163.070 123.499,161.200 122.800 C 159.330 122.101,157.350 121.381,156.800 121.200 C 156.250 121.019,154.270 120.299,152.400 119.600 C 150.530 118.901,148.550 118.181,148.000 118.000 C 147.450 117.819,145.470 117.099,143.600 116.400 C 141.730 115.701,139.750 114.981,139.200 114.800 C 138.650 114.619,136.670 113.899,134.800 113.200 C 132.930 112.501,130.950 111.781,130.400 111.600 C 129.850 111.419,127.870 110.699,126.000 110.000 C 124.130 109.301,122.150 108.581,121.600 108.400 C 121.050 108.219,119.070 107.499,117.200 106.800 C 115.330 106.101,113.350 105.381,112.800 105.200 C 112.250 105.019,110.270 104.303,108.400 103.609 C 102.942 101.583,101.536 101.131,101.333 101.333 C 101.131 101.536,101.583 102.942,103.609 108.400 C 104.303 110.270,105.019 112.250,105.200 112.800 C 105.381 113.350,106.101 115.330,106.800 117.200 C 107.499 119.070,108.219 121.050,108.400 121.600 C 108.581 122.150,109.301 124.130,110.000 126.000 C 110.699 127.870,111.419 129.850,111.600 130.400 C 111.781 130.950,112.501 132.930,113.200 134.800 C 113.899 136.670,114.619 138.650,114.800 139.200 C 114.981 139.750,115.701 141.730,116.400 143.600 C 117.099 145.470,117.819 147.450,118.000 148.000 C 118.181 148.550,118.901 150.530,119.600 152.400 C 120.299 154.270,121.019 156.250,121.200 156.800 C 121.381 157.350,122.095 159.330,122.787 161.200 C 125.355 168.138,125.675 169.029,126.062 170.338 C 126.640 172.289,127.900 172.184,101.273 172.400 L 76.613 172.600 79.406 174.621 C 108.376 195.577,130.749 211.851,131.309 212.376 C 132.105 213.122,131.923 213.882,129.196 221.200 C 128.499 223.070,127.781 225.050,127.600 225.600 C 127.419 226.150,126.699 228.130,126.000 230.000 C 125.301 231.870,124.581 233.850,124.400 234.400 C 124.219 234.950,123.499 236.930,122.800 238.800 C 122.101 240.670,121.381 242.650,121.200 243.200 C 121.019 243.750,120.299 245.730,119.600 247.600 C 118.901 249.470,118.181 251.450,118.000 252.000 C 117.819 252.550,117.099 254.530,116.400 256.400 C 115.701 258.270,114.981 260.250,114.800 260.800 C 114.619 261.350,113.899 263.330,113.200 265.200 C 112.501 267.070,111.781 269.050,111.600 269.600 C 111.419 270.150,110.699 272.130,110.000 274.000 C 109.301 275.870,108.581 277.850,108.400 278.400 C 108.219 278.950,107.499 280.930,106.800 282.800 C 106.101 284.670,105.381 286.650,105.200 287.200 C 105.019 287.750,104.303 289.730,103.609 291.600 C 101.583 297.058,101.131 298.464,101.333 298.667 C 101.536 298.869,102.942 298.417,108.400 296.391 C 110.270 295.697,112.250 294.981,112.800 294.800 C 113.350 294.619,115.330 293.899,117.200 293.200 C 119.070 292.501,121.050 291.781,121.600 291.600 C 122.150 291.419,124.130 290.704,126.000 290.010 C 133.000 287.414,132.800 287.449,132.800 288.840 C 132.800 289.228,130.809 295.691,128.376 303.202 C 125.943 310.712,124.008 317.017,124.076 317.212 C 124.144 317.408,126.000 316.262,128.200 314.665 C 132.807 311.322,173.265 281.845,187.200 271.678 C 192.370 267.906,197.365 264.411,198.300 263.911 L 200.000 263.001 201.700 263.911 C 202.635 264.411,207.540 267.840,212.600 271.532 C 217.660 275.223,230.170 284.343,240.400 291.799 C 250.630 299.254,262.780 308.111,267.399 311.480 C 272.018 314.849,275.855 317.434,275.926 317.223 C 275.996 317.012,274.061 310.731,271.627 303.264 C 269.192 295.798,267.200 289.339,267.200 288.911 C 267.200 287.438,266.959 287.399,274.000 290.010 C 275.870 290.704,277.850 291.419,278.400 291.600 C 278.950 291.781,280.930 292.501,282.800 293.200 C 284.670 293.899,286.650 294.619,287.200 294.800 C 287.750 294.981,289.730 295.697,291.600 296.391 C 297.058 298.417,298.464 298.869,298.667 298.667 C 298.869 298.464,298.417 297.058,296.391 291.600 C 295.697 289.730,294.981 287.750,294.800 287.200 C 294.619 286.650,293.899 284.670,293.200 282.800 C 292.501 280.930,291.781 278.950,291.600 278.400 C 291.419 277.850,290.699 275.870,290.000 274.000 C 289.301 272.130,288.581 270.150,288.400 269.600 C 288.219 269.050,287.499 267.070,286.800 265.200 C 286.101 263.330,285.381 261.350,285.200 260.800 C 285.019 260.250,284.299 258.270,283.600 256.400 C 282.901 254.530,282.181 252.550,282.000 252.000 C 281.819 251.450,281.099 249.470,280.400 247.600 C 279.701 245.730,278.981 243.750,278.800 243.200 C 278.619 242.650,277.899 240.670,277.200 238.800 C 276.501 236.930,275.781 234.950,275.600 234.400 C 275.419 233.850,274.699 231.870,274.000 230.000 C 273.301 228.130,272.581 226.150,272.400 225.600 C 272.219 225.050,271.501 223.070,270.804 221.200 C 268.077 213.882,267.895 213.122,268.691 212.376 C 269.081 212.011,280.650 203.561,294.400 193.599 C 308.150 183.637,320.296 174.837,321.390 174.043 L 323.380 172.600 298.723 172.400 C 285.162 172.290,273.948 172.082,273.804 171.938 C 273.486 171.619,273.923 170.074,275.598 165.600 C 276.298 163.730,277.019 161.750,277.200 161.200 C 277.381 160.650,278.095 158.670,278.787 156.800 C 280.956 150.940,281.652 149.032,281.996 148.000 C 282.179 147.450,282.901 145.470,283.600 143.600 C 284.299 141.730,285.019 139.750,285.200 139.200 C 285.381 138.650,286.101 136.670,286.800 134.800 C 287.499 132.930,288.219 130.950,288.400 130.400 C 288.581 129.850,289.301 127.870,290.000 126.000 C 290.699 124.130,291.419 122.150,291.600 121.600 C 291.781 121.050,292.501 119.070,293.200 117.200 C 293.899 115.330,294.619 113.350,294.800 112.800 C 294.981 112.250,295.697 110.270,296.391 108.400 C 298.417 102.942,298.869 101.536,298.667 101.333 C 298.464 101.131,297.058 101.583,291.600 103.609 C 289.730 104.303,287.750 105.019,287.200 105.200 C 286.650 105.381,284.670 106.101,282.800 106.800 C 280.930 107.499,278.950 108.219,278.400 108.400 C 277.850 108.581,275.870 109.301,274.000 110.000 C 272.130 110.699,270.150 111.419,269.600 111.600 C 269.050 111.781,267.070 112.501,265.200 113.200 C 263.330 113.899,261.350 114.619,260.800 114.800 C 260.250 114.981,258.270 115.701,256.400 116.400 C 254.530 117.099,252.550 117.819,252.000 118.000 C 251.450 118.181,249.470 118.901,247.600 119.600 C 245.730 120.299,243.750 121.019,243.200 121.200 C 242.650 121.381,240.670 122.101,238.800 122.800 C 236.930 123.499,234.950 124.219,234.400 124.400 C 233.850 124.581,231.870 125.301,230.000 126.000 C 228.130 126.699,226.150 127.419,225.600 127.600 C 225.050 127.781,223.070 128.510,221.200 129.220 C 217.345 130.683,216.050 130.862,215.562 130.000 C 215.375 129.670,212.238 120.130,208.589 108.800 C 204.940 97.470,201.591 87.075,201.145 85.700 C 200.000 82.168,199.995 82.176,196.604 92.700 " stroke="none" fill="#fcc75c" fill-rule="evenodd"></path><path id="path1" d="M0.000 200.000 L 0.000 400.000 200.000 400.000 L 400.000 400.000 400.000 200.000 L 400.000 0.000 200.000 0.000 L 0.000 0.000 0.000 200.000 M202.057 85.832 C 202.858 88.234,204.814 94.250,206.403 99.200 C 207.993 104.150,209.974 110.270,210.805 112.800 C 211.636 115.330,213.061 119.740,213.971 122.600 C 214.881 125.460,215.814 128.274,216.042 128.854 L 216.459 129.907 219.129 128.917 C 220.598 128.373,222.250 127.780,222.800 127.599 C 223.350 127.419,225.330 126.699,227.200 126.000 C 229.070 125.301,231.050 124.581,231.600 124.400 C 232.150 124.219,234.130 123.499,236.000 122.800 C 237.870 122.101,239.850 121.381,240.400 121.200 C 240.950 121.019,242.930 120.299,244.800 119.600 C 246.670 118.901,248.650 118.181,249.200 118.000 C 249.750 117.819,251.730 117.099,253.600 116.400 C 255.470 115.701,257.450 114.981,258.000 114.800 C 258.550 114.619,260.530 113.899,262.400 113.200 C 264.270 112.501,266.250 111.781,266.800 111.600 C 267.350 111.419,269.330 110.701,271.200 110.004 C 273.070 109.308,276.490 108.051,278.800 107.213 C 281.110 106.374,285.070 104.936,287.600 104.017 C 298.576 100.029,299.556 99.716,299.920 100.080 C 300.283 100.443,299.942 101.511,296.054 112.200 C 295.174 114.620,293.733 118.580,292.853 121.000 C 291.350 125.133,290.366 127.842,286.348 138.897 C 283.851 145.770,281.671 151.764,279.983 156.400 C 279.141 158.710,277.739 162.580,276.865 165.000 C 275.992 167.420,275.084 169.895,274.848 170.500 L 274.420 171.600 299.110 171.606 C 313.876 171.610,324.040 171.764,324.397 171.989 C 325.099 172.434,325.168 172.365,321.200 175.199 C 319.550 176.378,317.255 178.030,316.100 178.871 C 313.206 180.978,309.781 183.476,307.400 185.216 C 306.300 186.019,297.255 192.588,287.300 199.812 C 277.345 207.037,269.200 213.164,269.200 213.429 C 269.200 213.694,269.843 215.686,270.629 217.855 C 271.995 221.626,273.162 224.839,276.712 234.600 C 277.592 237.020,279.064 241.070,279.983 243.600 C 282.110 249.456,284.436 255.853,286.383 261.200 C 288.329 266.547,290.655 272.944,292.783 278.800 C 293.701 281.330,295.174 285.380,296.054 287.800 C 299.942 298.489,300.283 299.557,299.920 299.920 C 299.556 300.284,298.531 299.957,287.703 296.020 C 285.229 295.120,281.269 293.681,278.903 292.822 C 276.536 291.963,273.293 290.782,271.695 290.198 C 268.165 288.908,267.931 288.969,268.597 291.000 C 268.885 291.880,270.239 296.110,271.606 300.400 C 272.972 304.690,274.790 310.297,275.645 312.859 C 278.218 320.568,278.490 320.595,266.718 311.981 C 261.593 308.231,256.410 304.452,255.200 303.584 C 251.194 300.709,249.003 299.114,229.400 284.800 C 218.704 276.990,209.019 269.919,207.876 269.086 C 199.717 263.138,200.284 263.138,192.123 269.086 C 190.981 269.919,180.306 277.710,168.400 286.400 C 146.596 302.315,144.415 303.903,140.400 306.784 C 139.190 307.652,134.998 310.711,131.084 313.581 C 122.004 320.240,121.878 320.248,123.955 314.047 C 124.591 312.151,126.409 306.550,127.997 301.600 C 129.584 296.650,131.118 291.880,131.405 291.000 C 132.068 288.969,131.834 288.908,128.305 290.198 C 126.707 290.782,123.464 291.963,121.097 292.822 C 118.731 293.681,114.771 295.120,112.297 296.020 C 101.469 299.957,100.444 300.284,100.080 299.920 C 99.675 299.515,99.572 299.819,107.288 278.600 C 108.168 276.180,109.608 272.220,110.488 269.800 C 111.368 267.380,112.776 263.510,113.617 261.200 C 115.564 255.853,117.890 249.456,120.017 243.600 C 120.936 241.070,122.376 237.110,123.217 234.800 C 125.018 229.855,127.377 223.360,129.371 217.855 C 130.157 215.686,130.800 213.694,130.800 213.429 C 130.800 213.164,123.645 207.757,114.900 201.412 C 106.155 195.068,98.055 189.184,96.900 188.338 C 94.823 186.817,92.567 185.174,88.100 181.930 C 86.835 181.011,85.170 179.789,84.400 179.214 C 83.630 178.639,81.245 176.922,79.100 175.399 C 75.665 172.959,74.912 172.267,75.300 171.908 C 75.355 171.857,86.663 171.722,100.429 171.608 L 125.458 171.400 123.489 166.000 C 122.406 163.030,120.837 158.710,120.004 156.400 C 119.170 154.090,117.768 150.220,116.888 147.800 C 116.008 145.380,114.552 141.374,113.652 138.897 C 112.752 136.421,111.312 132.461,110.452 130.097 C 109.592 127.734,108.136 123.730,107.217 121.200 C 106.299 118.670,104.826 114.620,103.946 112.200 C 100.058 101.511,99.717 100.443,100.080 100.080 C 100.443 99.717,101.511 100.058,112.200 103.946 C 114.620 104.826,118.580 106.265,121.000 107.142 C 123.420 108.020,126.930 109.308,128.800 110.004 C 130.670 110.701,132.650 111.419,133.200 111.600 C 133.750 111.781,135.730 112.501,137.600 113.200 C 139.470 113.899,141.450 114.619,142.000 114.800 C 142.550 114.981,144.530 115.701,146.400 116.400 C 148.270 117.099,150.250 117.819,150.800 118.000 C 151.350 118.181,153.330 118.901,155.200 119.600 C 157.070 120.299,159.050 121.019,159.600 121.200 C 160.150 121.381,162.130 122.101,164.000 122.800 C 165.870 123.499,167.850 124.219,168.400 124.400 C 168.950 124.581,170.930 125.301,172.800 126.000 C 174.670 126.699,176.650 127.419,177.200 127.599 C 177.750 127.780,179.402 128.373,180.871 128.917 L 183.541 129.907 183.958 128.854 C 184.186 128.274,185.119 125.460,186.029 122.600 C 186.939 119.740,188.364 115.330,189.195 112.800 C 190.026 110.270,192.008 104.150,193.599 99.200 C 200.485 77.769,199.753 78.925,202.057 85.832 " stroke="none" fill="#fcfcfb" fill-rule="evenodd"></path><path id="path2" d="M199.200 82.314 C 199.200 82.487,199.560 82.629,200.000 82.629 C 200.440 82.629,200.800 82.487,200.800 82.314 C 200.800 82.141,200.440 82.000,200.000 82.000 C 199.560 82.000,199.200 82.141,199.200 82.314 M100.006 100.500 C 100.009 100.775,100.201 101.270,100.432 101.600 C 100.757 102.064,100.792 101.987,100.587 101.261 C 100.350 100.424,100.424 100.350,101.261 100.587 C 101.987 100.792,102.064 100.757,101.600 100.432 C 100.783 99.860,99.999 99.893,100.006 100.500 M298.400 100.432 C 297.936 100.757,298.013 100.792,298.739 100.587 C 299.576 100.350,299.650 100.424,299.413 101.261 C 299.208 101.987,299.243 102.064,299.568 101.600 C 300.504 100.262,299.738 99.496,298.400 100.432 M131.647 288.371 C 131.272 288.603,131.358 288.748,131.966 288.907 C 132.425 289.027,132.800 288.973,132.800 288.786 C 132.800 288.241,132.204 288.027,131.647 288.371 M267.373 288.444 C 267.016 289.022,267.276 289.144,268.171 288.820 C 268.848 288.574,268.862 288.509,268.284 288.287 C 267.922 288.149,267.512 288.219,267.373 288.444 M100.190 298.830 C 99.837 299.945,100.205 300.222,101.296 299.661 L 102.200 299.196 101.261 299.437 C 100.447 299.646,100.357 299.566,100.587 298.839 C 100.734 298.378,100.764 298.000,100.654 298.000 C 100.544 298.000,100.335 298.374,100.190 298.830 M299.437 298.739 C 299.650 299.568,299.568 299.650,298.739 299.437 L 297.800 299.196 298.704 299.661 C 299.201 299.916,299.724 300.009,299.867 299.867 C 300.009 299.724,299.916 299.201,299.661 298.704 L 299.196 297.800 299.437 298.739 " stroke="none" fill="#fcebb8" fill-rule="evenodd"></path><path id="path3" d="M199.475 82.658 C 199.324 82.810,199.203 83.218,199.206 83.567 C 199.211 84.122,199.261 84.126,199.606 83.600 C 199.956 83.067,200.047 83.067,200.422 83.600 C 200.774 84.102,200.823 84.074,200.722 83.433 C 200.592 82.616,199.929 82.204,199.475 82.658 M201.748 87.500 C 201.858 87.885,202.169 88.966,202.439 89.903 C 202.708 90.839,203.000 91.533,203.088 91.446 C 203.293 91.241,202.009 86.800,201.745 86.800 C 201.635 86.800,201.637 87.115,201.748 87.500 M197.029 90.229 C 196.881 90.815,196.838 91.372,196.932 91.466 C 197.027 91.560,197.224 91.158,197.371 90.571 C 197.519 89.985,197.562 89.428,197.468 89.334 C 197.373 89.240,197.176 89.642,197.029 90.229 M100.588 101.261 C 100.735 101.777,101.202 103.145,101.627 104.300 C 102.052 105.455,102.760 107.390,103.200 108.600 C 103.640 109.810,104.360 111.790,104.800 113.000 C 105.240 114.210,105.960 116.190,106.400 117.400 C 106.840 118.610,107.560 120.590,108.000 121.800 C 108.440 123.010,109.160 124.990,109.600 126.200 C 110.040 127.410,110.760 129.390,111.200 130.600 C 111.640 131.810,112.360 133.790,112.800 135.000 C 113.240 136.210,113.960 138.190,114.400 139.400 C 114.840 140.610,115.560 142.590,116.000 143.800 C 116.440 145.010,117.160 146.990,117.600 148.200 C 118.040 149.410,118.760 151.390,119.200 152.600 C 119.640 153.810,120.360 155.790,120.800 157.000 C 121.240 158.210,121.960 160.190,122.400 161.400 C 123.253 163.746,124.238 166.437,125.549 170.000 C 125.994 171.210,126.368 172.019,126.379 171.797 C 126.409 171.224,125.858 169.499,124.400 165.600 C 123.701 163.730,122.981 161.750,122.800 161.200 C 122.619 160.650,121.899 158.670,121.200 156.800 C 120.501 154.930,119.781 152.950,119.600 152.400 C 119.419 151.850,118.699 149.870,118.000 148.000 C 117.301 146.130,116.581 144.150,116.400 143.600 C 116.219 143.050,115.499 141.070,114.800 139.200 C 114.101 137.330,113.381 135.350,113.200 134.800 C 113.019 134.250,112.299 132.270,111.600 130.400 C 110.901 128.530,110.181 126.550,110.000 126.000 C 109.819 125.450,109.099 123.470,108.400 121.600 C 107.701 119.730,106.981 117.750,106.800 117.200 C 106.619 116.650,105.905 114.670,105.213 112.800 C 101.727 103.382,101.110 101.557,101.333 101.333 C 101.536 101.131,102.942 101.583,108.400 103.609 C 110.270 104.303,112.250 105.019,112.800 105.200 C 113.350 105.381,115.330 106.101,117.200 106.800 C 119.070 107.499,121.050 108.219,121.600 108.400 C 122.150 108.581,124.130 109.301,126.000 110.000 C 127.870 110.699,129.850 111.419,130.400 111.600 C 130.950 111.781,132.930 112.501,134.800 113.200 C 136.670 113.899,138.650 114.619,139.200 114.800 C 139.750 114.981,141.730 115.701,143.600 116.400 C 145.470 117.099,147.450 117.819,148.000 118.000 C 148.550 118.181,150.530 118.901,152.400 119.600 C 154.270 120.299,156.250 121.019,156.800 121.200 C 157.350 121.381,159.330 122.101,161.200 122.800 C 163.070 123.499,165.050 124.219,165.600 124.400 C 166.150 124.581,168.130 125.301,170.000 126.000 C 171.870 126.699,173.850 127.419,174.400 127.600 C 174.950 127.781,176.930 128.505,178.800 129.210 C 183.542 130.997,183.844 131.040,184.397 130.006 C 184.654 129.525,184.777 129.043,184.669 128.936 C 184.561 128.828,184.354 129.113,184.210 129.570 C 183.943 130.411,182.875 130.674,182.180 130.070 C 181.971 129.888,180.990 129.495,180.000 129.198 C 179.010 128.900,178.020 128.541,177.800 128.400 C 177.580 128.259,176.590 127.899,175.600 127.600 C 174.610 127.301,173.620 126.941,173.400 126.800 C 173.180 126.659,172.190 126.299,171.200 126.000 C 170.210 125.701,169.220 125.341,169.000 125.200 C 168.780 125.059,167.790 124.699,166.800 124.400 C 165.810 124.101,164.820 123.746,164.600 123.611 C 164.380 123.477,163.480 123.137,162.600 122.857 C 161.720 122.577,160.640 122.197,160.200 122.013 C 159.454 121.701,158.180 121.229,152.600 119.200 C 151.390 118.760,149.410 118.040,148.200 117.600 C 146.990 117.160,145.010 116.440,143.800 116.000 C 142.590 115.560,140.610 114.840,139.400 114.400 C 138.190 113.960,136.210 113.240,135.000 112.800 C 133.790 112.360,131.810 111.640,130.600 111.200 C 129.390 110.760,127.410 110.040,126.200 109.600 C 124.990 109.160,123.010 108.440,121.800 108.000 C 120.590 107.560,118.610 106.840,117.400 106.400 C 116.190 105.960,114.210 105.240,113.000 104.800 C 111.790 104.360,109.810 103.640,108.600 103.200 C 107.390 102.760,105.455 102.052,104.300 101.627 C 100.451 100.211,100.285 100.195,100.588 101.261 M296.800 101.246 C 295.590 101.695,294.150 102.213,293.600 102.396 C 293.050 102.579,291.070 103.301,289.200 104.000 C 287.330 104.699,285.350 105.419,284.800 105.600 C 284.250 105.781,282.270 106.501,280.400 107.200 C 278.530 107.899,276.550 108.619,276.000 108.800 C 275.450 108.981,273.470 109.701,271.600 110.400 C 269.730 111.099,267.750 111.819,267.200 112.000 C 266.650 112.181,264.670 112.901,262.800 113.600 C 260.930 114.299,258.950 115.019,258.400 115.200 C 257.850 115.381,255.870 116.101,254.000 116.800 C 252.130 117.499,250.150 118.219,249.600 118.400 C 249.050 118.581,247.070 119.302,245.200 120.004 C 243.330 120.705,241.440 121.377,241.000 121.497 C 240.560 121.617,240.020 121.837,239.800 121.986 C 239.580 122.134,238.590 122.501,237.600 122.800 C 236.610 123.099,235.620 123.459,235.400 123.600 C 235.180 123.741,234.190 124.101,233.200 124.400 C 232.210 124.699,231.220 125.059,231.000 125.200 C 230.780 125.341,229.790 125.701,228.800 126.000 C 227.810 126.299,226.820 126.659,226.600 126.800 C 226.380 126.941,225.390 127.301,224.400 127.600 C 223.410 127.899,222.420 128.259,222.200 128.400 C 221.980 128.541,220.990 128.900,220.000 129.198 C 219.010 129.495,218.029 129.888,217.820 130.070 C 217.123 130.676,216.127 130.410,215.688 129.500 C 215.377 128.855,215.246 128.785,215.227 129.251 C 215.190 130.136,216.239 130.941,217.098 130.687 C 217.484 130.572,219.330 129.905,221.200 129.204 C 223.070 128.502,225.050 127.781,225.600 127.600 C 226.150 127.419,228.130 126.699,230.000 126.000 C 231.870 125.301,233.850 124.581,234.400 124.400 C 234.950 124.219,236.930 123.499,238.800 122.800 C 240.670 122.101,242.650 121.381,243.200 121.200 C 243.750 121.019,245.730 120.299,247.600 119.600 C 249.470 118.901,251.450 118.181,252.000 118.000 C 252.550 117.819,254.530 117.099,256.400 116.400 C 258.270 115.701,260.250 114.981,260.800 114.800 C 261.350 114.619,263.330 113.899,265.200 113.200 C 267.070 112.501,269.050 111.781,269.600 111.600 C 270.150 111.419,272.130 110.699,274.000 110.000 C 275.870 109.301,277.850 108.581,278.400 108.400 C 278.950 108.219,280.930 107.499,282.800 106.800 C 284.670 106.101,286.650 105.381,287.200 105.200 C 287.750 105.019,289.730 104.303,291.600 103.609 C 297.058 101.583,298.464 101.131,298.667 101.333 C 298.869 101.536,298.417 102.942,296.391 108.400 C 295.697 110.270,294.981 112.250,294.800 112.800 C 294.619 113.350,293.899 115.330,293.200 117.200 C 292.501 119.070,291.781 121.050,291.600 121.600 C 291.419 122.150,290.705 124.130,290.013 126.000 C 287.844 131.860,287.148 133.768,286.804 134.800 C 286.621 135.350,285.899 137.330,285.200 139.200 C 284.501 141.070,283.781 143.050,283.600 143.600 C 283.419 144.150,282.699 146.130,282.000 148.000 C 281.301 149.870,280.581 151.850,280.400 152.400 C 280.219 152.950,279.499 154.930,278.800 156.800 C 278.101 158.670,277.381 160.650,277.200 161.200 C 277.019 161.750,276.299 163.730,275.600 165.600 C 274.142 169.499,273.591 171.224,273.621 171.797 C 273.632 172.019,274.006 171.210,274.451 170.000 C 275.762 166.437,276.747 163.746,277.600 161.400 C 278.040 160.190,278.760 158.210,279.200 157.000 C 279.640 155.790,280.360 153.810,280.800 152.600 C 281.240 151.390,281.960 149.410,282.400 148.200 C 282.840 146.990,283.560 145.010,284.000 143.800 C 284.440 142.590,285.160 140.610,285.600 139.400 C 286.040 138.190,286.760 136.210,287.200 135.000 C 287.640 133.790,288.360 131.810,288.800 130.600 C 289.240 129.390,289.960 127.410,290.400 126.200 C 290.840 124.990,291.560 123.010,292.000 121.800 C 292.440 120.590,293.160 118.610,293.600 117.400 C 294.040 116.190,294.760 114.210,295.200 113.000 C 295.640 111.790,296.360 109.810,296.800 108.600 C 297.240 107.390,297.948 105.455,298.373 104.300 C 299.997 99.885,300.072 100.031,296.800 101.246 M193.073 102.153 C 192.923 102.545,192.811 103.166,192.825 103.533 C 192.842 103.975,192.981 103.874,193.237 103.234 C 193.449 102.703,193.561 102.082,193.485 101.854 C 193.409 101.627,193.224 101.761,193.073 102.153 M206.434 102.000 C 206.446 102.330,206.611 102.960,206.800 103.400 L 207.144 104.200 207.166 103.400 C 207.178 102.960,207.013 102.330,206.800 102.000 C 206.455 101.467,206.415 101.467,206.434 102.000 M188.273 116.953 C 188.123 117.345,188.011 117.966,188.025 118.333 C 188.042 118.775,188.181 118.674,188.437 118.034 C 188.649 117.503,188.761 116.882,188.685 116.654 C 188.609 116.427,188.424 116.561,188.273 116.953 M211.256 116.800 C 211.256 117.130,211.411 117.760,211.600 118.200 C 211.817 118.704,211.944 118.778,211.944 118.400 C 211.944 118.070,211.789 117.440,211.600 117.000 C 211.383 116.496,211.256 116.422,211.256 116.800 M76.000 172.304 C 76.000 172.471,76.405 172.860,76.900 173.168 C 77.722 173.680,77.753 173.672,77.254 173.067 C 76.747 172.454,78.479 172.399,101.254 172.300 L 125.800 172.194 100.900 172.097 C 87.205 172.044,76.000 172.137,76.000 172.304 M298.746 172.300 C 321.521 172.399,323.253 172.454,322.746 173.067 C 322.247 173.672,322.278 173.680,323.100 173.168 C 323.595 172.860,324.000 172.471,324.000 172.304 C 324.000 172.137,312.795 172.044,299.100 172.097 L 274.200 172.194 298.746 172.300 M78.179 173.966 C 78.480 174.452,82.000 176.932,82.000 176.657 C 82.000 176.557,81.081 175.815,79.958 175.008 C 78.835 174.201,78.035 173.732,78.179 173.966 M320.200 174.853 C 317.834 176.624,317.522 177.106,319.680 175.654 C 320.713 174.959,321.669 174.212,321.803 173.995 C 322.155 173.426,321.983 173.518,320.200 174.853 M82.550 177.120 C 82.710 177.378,83.669 178.160,84.682 178.857 C 87.079 180.506,86.640 179.795,84.163 178.016 C 83.116 177.265,82.391 176.861,82.550 177.120 M315.800 178.032 C 313.430 179.824,313.127 180.302,315.280 178.854 C 316.313 178.159,317.269 177.412,317.403 177.195 C 317.774 176.594,317.539 176.717,315.800 178.032 M86.950 180.320 C 87.110 180.578,88.069 181.360,89.082 182.057 C 91.479 183.706,91.040 182.995,88.563 181.216 C 87.516 180.465,86.791 180.061,86.950 180.320 M311.400 181.232 C 309.030 183.024,308.727 183.502,310.880 182.054 C 311.913 181.359,312.869 180.612,313.003 180.395 C 313.374 179.794,313.139 179.917,311.400 181.232 M91.350 183.520 C 91.510 183.778,92.469 184.560,93.482 185.257 C 95.879 186.906,95.440 186.195,92.963 184.416 C 91.916 183.665,91.191 183.261,91.350 183.520 M306.400 184.842 C 303.264 187.132,302.958 187.608,305.875 185.658 C 307.237 184.748,308.462 183.823,308.599 183.602 C 308.974 182.994,308.782 183.103,306.400 184.842 M95.750 186.720 C 95.910 186.978,96.869 187.760,97.882 188.457 C 100.279 190.106,99.840 189.395,97.363 187.616 C 96.316 186.865,95.591 186.461,95.750 186.720 M301.600 188.435 L 300.200 189.648 301.695 188.724 C 302.517 188.216,303.192 187.665,303.195 187.500 C 303.202 187.064,303.138 187.102,301.600 188.435 M100.143 189.908 C 100.312 190.181,101.563 191.147,102.925 192.056 C 105.813 193.983,105.196 193.247,102.018 190.973 C 100.818 190.114,99.974 189.635,100.143 189.908 M297.600 191.242 C 294.460 193.535,294.131 194.050,297.122 191.990 C 299.266 190.514,300.406 189.548,299.924 189.618 C 299.856 189.628,298.810 190.359,297.600 191.242 M105.605 193.880 C 105.608 194.056,106.238 194.607,107.005 195.104 C 108.803 196.268,108.800 196.000,107.000 194.627 C 106.230 194.040,105.602 193.703,105.605 193.880 M292.800 194.835 L 291.400 196.048 292.895 195.124 C 293.717 194.616,294.392 194.065,294.395 193.900 C 294.402 193.464,294.338 193.502,292.800 194.835 M108.897 196.233 C 109.040 196.464,110.292 197.434,111.678 198.388 C 113.065 199.342,113.930 199.855,113.600 199.528 C 112.671 198.608,108.604 195.759,108.897 196.233 M288.800 197.642 C 285.660 199.935,285.331 200.450,288.322 198.390 C 290.466 196.914,291.606 195.948,291.124 196.018 C 291.056 196.028,290.010 196.759,288.800 197.642 M114.407 200.300 C 114.411 200.465,115.266 201.170,116.307 201.868 C 117.348 202.565,119.235 203.884,120.500 204.799 C 121.765 205.715,122.800 206.380,122.800 206.278 C 122.800 206.176,120.910 204.722,118.600 203.047 C 116.290 201.371,114.403 200.136,114.407 200.300 M281.523 202.954 C 279.391 204.519,277.501 205.974,277.323 206.187 C 277.145 206.400,277.270 206.385,277.600 206.154 C 277.930 205.922,279.820 204.586,281.800 203.185 C 283.780 201.783,285.475 200.583,285.567 200.518 C 285.658 200.453,285.658 200.334,285.567 200.254 C 285.475 200.174,283.655 201.389,281.523 202.954 M123.221 206.700 C 123.232 206.865,124.801 208.080,126.708 209.400 C 132.286 213.263,132.008 212.360,129.600 218.800 C 128.901 220.670,128.181 222.650,128.000 223.200 C 127.819 223.750,127.099 225.730,126.400 227.600 C 125.701 229.470,124.981 231.450,124.800 232.000 C 124.619 232.550,123.899 234.530,123.200 236.400 C 122.501 238.270,121.781 240.250,121.600 240.800 C 121.419 241.350,120.699 243.330,120.000 245.200 C 119.301 247.070,118.581 249.050,118.400 249.600 C 118.219 250.150,117.499 252.130,116.800 254.000 C 116.101 255.870,115.381 257.850,115.200 258.400 C 115.019 258.950,114.299 260.930,113.600 262.800 C 112.901 264.670,112.181 266.650,112.000 267.200 C 111.819 267.750,111.099 269.730,110.400 271.600 C 109.701 273.470,108.981 275.450,108.800 276.000 C 108.619 276.550,107.905 278.530,107.213 280.400 C 105.044 286.260,104.348 288.168,104.004 289.200 C 103.821 289.750,103.099 291.730,102.400 293.600 C 99.934 300.194,99.901 299.932,103.053 298.789 C 104.344 298.321,105.850 297.788,106.400 297.604 C 106.950 297.421,108.930 296.699,110.800 296.000 C 112.670 295.301,114.650 294.581,115.200 294.400 C 115.750 294.219,117.730 293.499,119.600 292.800 C 121.470 292.101,123.450 291.381,124.000 291.200 C 124.550 291.019,126.530 290.296,128.400 289.594 C 130.270 288.891,132.017 288.305,132.282 288.291 C 132.548 288.278,132.685 288.137,132.587 287.979 C 132.402 287.680,131.702 287.896,126.000 290.010 C 124.130 290.704,122.150 291.419,121.600 291.600 C 121.050 291.781,119.070 292.501,117.200 293.200 C 115.330 293.899,113.350 294.619,112.800 294.800 C 112.250 294.981,110.270 295.697,108.400 296.391 C 102.942 298.417,101.536 298.869,101.333 298.667 C 101.131 298.464,101.583 297.058,103.609 291.600 C 104.303 289.730,105.019 287.750,105.200 287.200 C 105.381 286.650,106.101 284.670,106.800 282.800 C 107.499 280.930,108.219 278.950,108.400 278.400 C 108.581 277.850,109.301 275.870,110.000 274.000 C 110.699 272.130,111.419 270.150,111.600 269.600 C 111.781 269.050,112.501 267.070,113.200 265.200 C 113.899 263.330,114.619 261.350,114.800 260.800 C 114.981 260.250,115.701 258.270,116.400 256.400 C 117.099 254.530,117.819 252.550,118.000 252.000 C 118.181 251.450,118.901 249.470,119.600 247.600 C 120.299 245.730,121.019 243.750,121.200 243.200 C 121.381 242.650,122.101 240.670,122.800 238.800 C 123.499 236.930,124.219 234.950,124.400 234.400 C 124.581 233.850,125.301 231.870,126.000 230.000 C 126.699 228.130,127.419 226.150,127.600 225.600 C 127.781 225.050,128.499 223.070,129.196 221.200 C 131.102 216.085,132.016 213.149,131.806 212.810 C 131.478 212.279,123.199 206.387,123.221 206.700 M272.715 209.354 C 270.579 210.919,268.641 212.392,268.409 212.627 C 267.955 213.085,268.479 214.960,270.804 221.200 C 271.501 223.070,272.219 225.050,272.400 225.600 C 272.581 226.150,273.301 228.130,274.000 230.000 C 274.699 231.870,275.419 233.850,275.600 234.400 C 275.781 234.950,276.501 236.930,277.200 238.800 C 277.899 240.670,278.619 242.650,278.800 243.200 C 278.981 243.750,279.701 245.730,280.400 247.600 C 281.099 249.470,281.819 251.450,282.000 252.000 C 282.181 252.550,282.901 254.530,283.600 256.400 C 284.299 258.270,285.019 260.250,285.200 260.800 C 285.381 261.350,286.101 263.330,286.800 265.200 C 287.499 267.070,288.219 269.050,288.400 269.600 C 288.581 270.150,289.301 272.130,290.000 274.000 C 290.699 275.870,291.419 277.850,291.600 278.400 C 291.781 278.950,292.501 280.930,293.200 282.800 C 293.899 284.670,294.619 286.650,294.800 287.200 C 294.981 287.750,295.697 289.730,296.391 291.600 C 298.417 297.058,298.869 298.464,298.667 298.667 C 298.464 298.869,297.058 298.417,291.600 296.391 C 289.730 295.697,287.750 294.981,287.200 294.800 C 286.650 294.619,284.670 293.899,282.800 293.200 C 280.930 292.501,278.950 291.781,278.400 291.600 C 277.850 291.419,275.870 290.704,274.000 290.010 C 268.298 287.896,267.598 287.680,267.413 287.979 C 267.315 288.137,267.452 288.278,267.718 288.291 C 267.983 288.305,269.730 288.891,271.600 289.594 C 273.470 290.296,275.450 291.019,276.000 291.200 C 276.550 291.381,278.530 292.101,280.400 292.800 C 282.270 293.499,284.250 294.219,284.800 294.400 C 285.350 294.581,287.330 295.295,289.200 295.987 C 297.958 299.229,299.262 299.671,299.467 299.467 C 299.631 299.302,299.094 297.603,297.613 293.600 C 295.444 287.740,294.748 285.832,294.404 284.800 C 294.221 284.250,293.499 282.270,292.800 280.400 C 292.101 278.530,291.381 276.550,291.200 276.000 C 291.019 275.450,290.299 273.470,289.600 271.600 C 288.901 269.730,288.181 267.750,288.000 267.200 C 287.819 266.650,287.099 264.670,286.400 262.800 C 285.701 260.930,284.981 258.950,284.800 258.400 C 284.619 257.850,283.899 255.870,283.200 254.000 C 282.501 252.130,281.781 250.150,281.600 249.600 C 281.419 249.050,280.699 247.070,280.000 245.200 C 279.301 243.330,278.581 241.350,278.400 240.800 C 278.219 240.250,277.499 238.270,276.800 236.400 C 276.101 234.530,275.381 232.550,275.200 232.000 C 275.019 231.450,274.299 229.470,273.600 227.600 C 272.901 225.730,272.181 223.750,272.000 223.200 C 271.819 222.650,271.099 220.670,270.400 218.800 C 268.011 212.410,267.767 213.274,273.000 209.578 C 274.980 208.180,276.675 206.983,276.767 206.918 C 276.858 206.853,276.858 206.734,276.767 206.654 C 276.675 206.574,274.852 207.789,272.715 209.354 M198.300 263.829 C 196.754 264.668,196.931 264.872,198.600 264.174 C 199.828 263.661,200.172 263.661,201.400 264.174 C 203.104 264.886,203.246 264.651,201.620 263.810 C 200.175 263.063,199.706 263.066,198.300 263.829 M193.800 266.832 C 191.430 268.624,191.127 269.102,193.280 267.654 C 194.313 266.959,195.269 266.212,195.403 265.995 C 195.774 265.394,195.539 265.517,193.800 266.832 M204.550 265.920 C 204.710 266.178,205.669 266.960,206.682 267.657 C 209.079 269.306,208.640 268.595,206.163 266.816 C 205.116 266.065,204.391 265.661,204.550 265.920 M189.400 270.032 C 187.030 271.824,186.727 272.302,188.880 270.854 C 189.913 270.159,190.869 269.412,191.003 269.195 C 191.374 268.594,191.139 268.717,189.400 270.032 M208.950 269.120 C 209.110 269.378,210.069 270.160,211.082 270.857 C 213.479 272.506,213.040 271.795,210.563 270.016 C 209.516 269.265,208.791 268.861,208.950 269.120 M185.000 273.253 C 182.634 275.024,182.322 275.506,184.480 274.054 C 185.513 273.359,186.469 272.612,186.603 272.395 C 186.955 271.826,186.783 271.918,185.000 273.253 M213.379 272.366 C 213.680 272.852,217.200 275.332,217.200 275.057 C 217.200 274.957,216.281 274.215,215.158 273.408 C 214.035 272.601,213.235 272.132,213.379 272.366 M178.400 278.050 C 174.494 280.948,172.715 282.466,175.200 280.780 C 179.277 278.014,182.980 275.112,182.300 275.215 C 182.245 275.223,180.490 276.499,178.400 278.050 M217.600 275.337 C 217.600 275.464,218.905 276.527,220.500 277.699 C 224.693 280.780,226.000 281.678,226.000 281.476 C 226.000 281.378,224.695 280.349,223.100 279.188 C 221.505 278.027,219.615 276.633,218.900 276.091 C 218.185 275.549,217.600 275.209,217.600 275.337 M169.523 284.554 C 167.391 286.119,165.501 287.574,165.323 287.787 C 165.145 288.000,165.270 287.985,165.600 287.754 C 165.930 287.522,167.820 286.186,169.800 284.785 C 171.780 283.383,173.475 282.183,173.567 282.118 C 173.658 282.053,173.658 281.934,173.567 281.854 C 173.475 281.774,171.655 282.989,169.523 284.554 M226.407 281.900 C 226.411 282.065,227.266 282.770,228.307 283.468 C 229.348 284.165,231.235 285.484,232.500 286.399 C 233.765 287.315,234.800 287.980,234.800 287.878 C 234.800 287.776,232.910 286.322,230.600 284.647 C 228.290 282.971,226.403 281.736,226.407 281.900 M163.200 289.235 L 161.800 290.448 163.295 289.524 C 164.117 289.016,164.792 288.465,164.795 288.300 C 164.802 287.864,164.738 287.902,163.200 289.235 M235.205 288.280 C 235.208 288.456,235.838 289.007,236.605 289.504 C 238.403 290.668,238.400 290.400,236.600 289.027 C 235.830 288.440,235.202 288.103,235.205 288.280 M267.234 289.600 C 267.246 289.930,267.411 290.560,267.600 291.000 L 267.944 291.800 267.966 291.000 C 267.978 290.560,267.813 289.930,267.600 289.600 C 267.255 289.067,267.215 289.067,267.234 289.600 M159.200 292.042 C 156.060 294.335,155.731 294.850,158.722 292.790 C 160.866 291.314,162.006 290.348,161.524 290.418 C 161.456 290.428,160.410 291.159,159.200 292.042 M238.497 290.633 C 238.640 290.864,239.892 291.834,241.278 292.788 C 242.665 293.742,243.530 294.255,243.200 293.928 C 242.271 293.008,238.204 290.159,238.497 290.633 M131.473 292.153 C 131.323 292.545,131.211 293.166,131.225 293.533 C 131.242 293.975,131.381 293.874,131.637 293.234 C 131.849 292.703,131.961 292.082,131.885 291.854 C 131.809 291.627,131.624 291.761,131.473 292.153 M154.400 295.635 L 153.000 296.848 154.495 295.924 C 155.317 295.416,155.992 294.865,155.995 294.700 C 156.002 294.264,155.938 294.302,154.400 295.635 M244.005 294.680 C 244.008 294.856,244.638 295.407,245.405 295.904 C 247.203 297.068,247.200 296.800,245.400 295.427 C 244.630 294.840,244.002 294.503,244.005 294.680 M148.847 299.587 C 144.942 302.458,142.858 304.265,146.000 302.056 C 146.990 301.360,148.824 300.074,150.075 299.197 C 151.993 297.854,153.209 296.760,152.724 296.814 C 152.656 296.821,150.911 298.069,148.847 299.587 M247.350 297.120 C 247.510 297.378,248.469 298.160,249.482 298.857 C 251.879 300.506,251.440 299.795,248.963 298.016 C 247.916 297.265,247.191 296.861,247.350 297.120 M251.750 300.320 C 251.910 300.578,252.869 301.360,253.882 302.057 C 256.279 303.706,255.840 302.995,253.363 301.216 C 252.316 300.465,251.591 300.061,251.750 300.320 M142.200 304.432 C 139.830 306.224,139.527 306.702,141.680 305.254 C 142.713 304.559,143.669 303.812,143.803 303.595 C 144.174 302.994,143.939 303.117,142.200 304.432 M256.150 303.520 C 256.310 303.778,257.269 304.560,258.282 305.257 C 260.679 306.906,260.240 306.195,257.763 304.416 C 256.716 303.665,255.991 303.261,256.150 303.520 M127.449 304.615 C 127.312 304.973,127.215 305.566,127.234 305.933 C 127.253 306.300,127.427 306.069,127.621 305.420 C 127.998 304.158,127.865 303.533,127.449 304.615 M272.034 304.400 C 272.046 304.730,272.211 305.360,272.400 305.800 L 272.744 306.600 272.766 305.800 C 272.778 305.360,272.613 304.730,272.400 304.400 C 272.055 303.867,272.015 303.867,272.034 304.400 M137.800 307.632 C 135.430 309.424,135.127 309.902,137.280 308.454 C 138.313 307.759,139.269 307.012,139.403 306.795 C 139.774 306.194,139.539 306.317,137.800 307.632 M260.579 306.766 C 260.880 307.252,264.400 309.732,264.400 309.457 C 264.400 309.357,263.481 308.615,262.358 307.808 C 261.235 307.001,260.435 306.532,260.579 306.766 M131.200 312.450 C 127.294 315.348,125.515 316.866,128.000 315.180 C 132.077 312.414,135.780 309.512,135.100 309.615 C 135.045 309.623,133.290 310.899,131.200 312.450 M264.800 309.737 C 264.800 309.864,266.105 310.927,267.700 312.099 C 271.893 315.180,273.200 316.078,273.200 315.876 C 273.200 315.778,271.895 314.749,270.300 313.588 C 268.705 312.427,266.815 311.033,266.100 310.491 C 265.385 309.949,264.800 309.609,264.800 309.737 M125.100 316.846 C 124.065 317.619,124.000 317.624,123.994 316.933 C 123.987 316.065,123.217 317.009,123.206 317.900 C 123.197 318.677,123.712 318.501,125.215 317.216 C 126.803 315.859,126.732 315.629,125.100 316.846 M273.605 316.271 C 273.611 316.701,276.416 318.517,276.675 318.259 C 276.784 318.150,276.740 317.642,276.577 317.130 C 276.315 316.305,276.253 316.282,276.027 316.925 C 275.786 317.609,275.710 317.602,274.686 316.796 C 274.089 316.326,273.602 316.090,273.605 316.271 " stroke="none" fill="#fcde8e" fill-rule="evenodd"></path><path id="path4" d="M199.400 81.600 C 199.264 81.820,199.534 82.000,200.000 82.000 C 200.466 82.000,200.736 81.820,200.600 81.600 C 200.464 81.380,200.194 81.200,200.000 81.200 C 199.806 81.200,199.536 81.380,199.400 81.600 M196.844 89.044 C 196.380 90.524,196.070 91.804,196.156 91.889 C 196.241 91.975,196.691 90.835,197.156 89.356 C 197.620 87.876,197.930 86.596,197.844 86.511 C 197.759 86.425,197.309 87.565,196.844 89.044 M202.215 87.300 C 203.112 90.305,203.721 92.012,203.851 91.882 C 204.042 91.691,202.387 86.400,202.136 86.400 C 202.031 86.400,202.067 86.805,202.215 87.300 M206.194 99.600 C 207.112 102.730,208.534 106.799,208.664 106.669 C 208.844 106.490,206.475 99.134,206.135 98.818 C 206.006 98.698,206.033 99.050,206.194 99.600 M192.044 103.844 C 191.580 105.324,191.270 106.604,191.356 106.689 C 191.441 106.775,191.891 105.635,192.356 104.156 C 192.820 102.676,193.130 101.396,193.044 101.311 C 192.959 101.225,192.509 102.365,192.044 103.844 M115.800 105.571 C 116.680 105.994,117.670 106.347,118.000 106.355 C 118.686 106.371,116.639 105.427,115.174 105.051 C 114.638 104.914,114.920 105.148,115.800 105.571 M283.200 105.600 C 282.210 106.015,281.670 106.352,282.000 106.348 C 282.672 106.340,286.028 104.863,285.400 104.852 C 285.180 104.848,284.190 105.185,283.200 105.600 M124.600 108.771 C 125.480 109.194,126.470 109.547,126.800 109.555 C 127.486 109.571,125.439 108.627,123.974 108.251 C 123.438 108.114,123.720 108.348,124.600 108.771 M274.400 108.800 C 273.410 109.215,272.870 109.552,273.200 109.548 C 273.872 109.540,277.228 108.063,276.600 108.052 C 276.380 108.048,275.390 108.385,274.400 108.800 M129.546 110.616 C 130.286 110.937,131.096 111.193,131.346 111.184 C 131.596 111.176,131.194 110.906,130.454 110.584 C 129.714 110.263,128.904 110.007,128.654 110.016 C 128.404 110.024,128.806 110.294,129.546 110.616 M269.400 110.614 C 267.785 111.354,268.751 111.355,270.454 110.616 C 271.194 110.294,271.530 110.039,271.200 110.048 C 270.870 110.057,270.060 110.312,269.400 110.614 M133.946 112.216 C 134.686 112.537,135.496 112.793,135.746 112.784 C 135.996 112.776,135.594 112.506,134.854 112.184 C 134.114 111.863,133.304 111.607,133.054 111.616 C 132.804 111.624,133.206 111.894,133.946 112.216 M265.000 112.214 C 263.385 112.954,264.351 112.955,266.054 112.216 C 266.794 111.894,267.130 111.639,266.800 111.648 C 266.470 111.657,265.660 111.912,265.000 112.214 M138.346 113.816 C 139.086 114.137,139.896 114.393,140.146 114.384 C 140.396 114.376,139.994 114.106,139.254 113.784 C 138.514 113.463,137.704 113.207,137.454 113.216 C 137.204 113.224,137.606 113.494,138.346 113.816 M260.600 113.814 C 258.985 114.554,259.951 114.555,261.654 113.816 C 262.394 113.494,262.730 113.239,262.400 113.248 C 262.070 113.257,261.260 113.512,260.600 113.814 M188.044 116.244 C 187.580 117.724,187.270 119.004,187.356 119.089 C 187.441 119.175,187.891 118.035,188.356 116.556 C 188.820 115.076,189.130 113.796,189.044 113.711 C 188.959 113.625,188.509 114.765,188.044 116.244 M211.015 114.500 C 211.912 117.505,212.521 119.212,212.651 119.082 C 212.842 118.891,211.187 113.600,210.936 113.600 C 210.831 113.600,210.867 114.005,211.015 114.500 M142.746 115.416 C 143.486 115.737,144.296 115.993,144.546 115.984 C 144.796 115.976,144.394 115.706,143.654 115.384 C 142.914 115.063,142.104 114.807,141.854 114.816 C 141.604 114.824,142.006 115.094,142.746 115.416 M256.200 115.414 C 254.585 116.154,255.551 116.155,257.254 115.416 C 257.994 115.094,258.330 114.839,258.000 114.848 C 257.670 114.857,256.860 115.112,256.200 115.414 M147.146 117.016 C 147.886 117.337,148.696 117.593,148.946 117.584 C 149.196 117.576,148.794 117.306,148.054 116.984 C 147.314 116.663,146.504 116.407,146.254 116.416 C 146.004 116.424,146.406 116.694,147.146 117.016 M251.800 117.014 C 250.185 117.754,251.151 117.755,252.854 117.016 C 253.594 116.694,253.930 116.439,253.600 116.448 C 253.270 116.457,252.460 116.712,251.800 117.014 M151.546 118.616 C 152.286 118.937,153.096 119.193,153.346 119.184 C 153.596 119.176,153.194 118.906,152.454 118.584 C 151.714 118.263,150.904 118.007,150.654 118.016 C 150.404 118.024,150.806 118.294,151.546 118.616 M247.400 118.614 C 245.785 119.354,246.751 119.355,248.454 118.616 C 249.194 118.294,249.530 118.039,249.200 118.048 C 248.870 118.057,248.060 118.312,247.400 118.614 M155.946 120.216 C 156.686 120.537,157.496 120.793,157.746 120.784 C 157.996 120.776,157.594 120.506,156.854 120.184 C 156.114 119.863,155.304 119.607,155.054 119.616 C 154.804 119.624,155.206 119.894,155.946 120.216 M243.000 120.214 C 241.385 120.954,242.351 120.955,244.054 120.216 C 244.794 119.894,245.130 119.639,244.800 119.648 C 244.470 119.657,243.660 119.912,243.000 120.214 M160.346 121.816 C 161.086 122.137,161.896 122.393,162.146 122.384 C 162.396 122.376,161.994 122.106,161.254 121.784 C 160.514 121.463,159.704 121.207,159.454 121.216 C 159.204 121.224,159.606 121.494,160.346 121.816 M238.600 121.814 C 236.985 122.554,237.951 122.555,239.654 121.816 C 240.394 121.494,240.730 121.239,240.400 121.248 C 240.070 121.257,239.260 121.512,238.600 121.814 M164.746 123.416 C 165.486 123.737,166.296 123.993,166.546 123.984 C 166.796 123.976,166.394 123.706,165.654 123.384 C 164.914 123.063,164.104 122.807,163.854 122.816 C 163.604 122.824,164.006 123.094,164.746 123.416 M234.200 123.414 C 232.585 124.154,233.551 124.155,235.254 123.416 C 235.994 123.094,236.330 122.839,236.000 122.848 C 235.670 122.857,234.860 123.112,234.200 123.414 M169.146 125.016 C 169.886 125.337,170.696 125.593,170.946 125.584 C 171.196 125.576,170.794 125.306,170.054 124.984 C 169.314 124.663,168.504 124.407,168.254 124.416 C 168.004 124.424,168.406 124.694,169.146 125.016 M229.800 125.014 C 228.185 125.754,229.151 125.755,230.854 125.016 C 231.594 124.694,231.930 124.439,231.600 124.448 C 231.270 124.457,230.460 124.712,229.800 125.014 M173.546 126.616 C 174.286 126.937,175.096 127.193,175.346 127.184 C 175.596 127.176,175.194 126.906,174.454 126.584 C 173.714 126.263,172.904 126.007,172.654 126.016 C 172.404 126.024,172.806 126.294,173.546 126.616 M225.400 126.614 C 223.785 127.354,224.751 127.355,226.454 126.616 C 227.194 126.294,227.530 126.039,227.200 126.048 C 226.870 126.057,226.060 126.312,225.400 126.614 M177.946 128.216 C 178.686 128.537,179.496 128.793,179.746 128.784 C 179.996 128.776,179.594 128.506,178.854 128.184 C 178.114 127.863,177.304 127.607,177.054 127.616 C 176.804 127.624,177.206 127.894,177.946 128.216 M221.000 128.214 C 219.385 128.954,220.351 128.955,222.054 128.216 C 222.794 127.894,223.130 127.639,222.800 127.648 C 222.470 127.657,221.660 127.912,221.000 128.214 M183.810 129.170 C 183.592 129.857,183.410 129.926,182.751 129.574 C 182.314 129.340,181.778 129.207,181.561 129.280 C 181.343 129.352,181.715 129.619,182.386 129.872 C 183.538 130.307,185.001 129.268,184.269 128.536 C 184.161 128.428,183.955 128.713,183.810 129.170 M215.614 128.624 C 215.575 129.794,216.572 130.317,217.800 129.770 C 218.460 129.476,218.730 129.231,218.400 129.224 C 218.070 129.218,217.532 129.382,217.205 129.589 C 216.767 129.865,216.480 129.731,216.119 129.083 C 215.849 128.597,215.622 128.391,215.614 128.624 M88.329 171.900 C 95.220 171.961,106.380 171.961,113.129 171.900 C 119.878 171.838,114.240 171.788,100.600 171.788 C 86.960 171.788,81.438 171.838,88.329 171.900 M287.129 171.900 C 294.020 171.961,305.180 171.961,311.929 171.900 C 318.678 171.838,313.040 171.788,299.400 171.788 C 285.760 171.788,280.238 171.838,287.129 171.900 M75.206 172.223 C 75.203 172.456,75.965 173.187,76.900 173.848 C 77.835 174.509,79.545 175.731,80.700 176.563 C 81.855 177.394,82.800 177.989,82.800 177.884 C 82.800 177.779,81.225 176.557,79.300 175.168 C 77.375 173.778,75.668 172.453,75.506 172.221 C 75.301 171.927,75.210 171.927,75.206 172.223 M324.333 172.316 C 324.260 172.491,322.625 173.772,320.700 175.163 C 318.775 176.555,317.200 177.779,317.200 177.884 C 317.200 177.989,318.145 177.394,319.300 176.563 C 320.455 175.731,322.165 174.509,323.100 173.848 C 324.035 173.187,324.800 172.501,324.800 172.323 C 324.800 171.909,324.507 171.905,324.333 172.316 M83.600 178.562 C 83.600 178.672,84.410 179.319,85.400 180.000 C 86.390 180.681,87.200 181.148,87.200 181.038 C 87.200 180.928,86.390 180.281,85.400 179.600 C 84.410 178.919,83.600 178.452,83.600 178.562 M314.500 179.640 C 313.565 180.302,312.800 180.933,312.800 181.041 C 312.800 181.150,313.610 180.681,314.600 180.000 C 315.590 179.319,316.400 178.680,316.400 178.581 C 316.400 178.305,316.324 178.348,314.500 179.640 M87.779 181.566 C 88.080 182.052,91.600 184.532,91.600 184.257 C 91.600 184.157,90.681 183.415,89.558 182.608 C 88.435 181.801,87.635 181.332,87.779 181.566 M310.600 182.453 C 308.234 184.224,307.922 184.706,310.080 183.254 C 311.113 182.559,312.069 181.812,312.203 181.595 C 312.555 181.026,312.383 181.118,310.600 182.453 M92.400 184.962 C 92.400 185.072,93.210 185.719,94.200 186.400 C 95.190 187.081,96.000 187.548,96.000 187.438 C 96.000 187.328,95.190 186.681,94.200 186.000 C 93.210 185.319,92.400 184.852,92.400 184.962 M305.700 186.040 C 304.765 186.702,304.000 187.333,304.000 187.441 C 304.000 187.550,304.810 187.081,305.800 186.400 C 306.790 185.719,307.600 185.080,307.600 184.981 C 307.600 184.705,307.524 184.748,305.700 186.040 M96.581 187.969 C 96.710 188.178,97.994 189.173,99.435 190.180 C 100.875 191.187,101.948 191.840,101.819 191.631 C 101.690 191.422,100.406 190.427,98.965 189.420 C 97.525 188.413,96.452 187.760,96.581 187.969 M299.900 190.214 C 298.855 190.980,298.000 191.696,298.000 191.803 C 298.000 191.911,298.900 191.352,300.000 190.562 C 301.709 189.334,302.323 188.768,301.900 188.810 C 301.845 188.815,300.945 189.447,299.900 190.214 M102.400 192.146 C 102.400 192.256,102.940 192.730,103.600 193.200 C 104.260 193.670,104.800 193.964,104.800 193.854 C 104.800 193.744,104.260 193.270,103.600 192.800 C 102.940 192.330,102.400 192.036,102.400 192.146 M296.200 193.035 L 295.000 194.066 296.300 193.206 C 297.015 192.733,297.600 192.268,297.600 192.173 C 297.600 191.873,297.431 191.978,296.200 193.035 M106.800 195.343 C 106.800 195.443,107.719 196.185,108.842 196.992 C 109.965 197.799,110.765 198.268,110.621 198.034 C 110.320 197.548,106.800 195.068,106.800 195.343 M291.100 196.614 C 290.055 197.380,289.200 198.096,289.200 198.203 C 289.200 198.311,290.100 197.752,291.200 196.962 C 292.909 195.734,293.523 195.168,293.100 195.210 C 293.045 195.215,292.145 195.847,291.100 196.614 M111.200 198.546 C 111.200 198.656,111.740 199.130,112.400 199.600 C 113.060 200.070,113.600 200.364,113.600 200.254 C 113.600 200.144,113.060 199.670,112.400 199.200 C 111.740 198.730,111.200 198.436,111.200 198.546 M286.700 199.814 C 285.655 200.580,284.800 201.296,284.800 201.403 C 284.800 201.511,285.700 200.952,286.800 200.162 C 288.509 198.934,289.123 198.368,288.700 198.410 C 288.645 198.415,287.745 199.047,286.700 199.814 M115.600 201.743 C 115.600 201.843,116.519 202.585,117.642 203.392 C 118.765 204.199,119.565 204.668,119.421 204.434 C 119.120 203.948,115.600 201.468,115.600 201.743 M282.300 203.014 C 281.255 203.780,280.400 204.496,280.400 204.603 C 280.400 204.711,281.300 204.152,282.400 203.362 C 284.109 202.134,284.723 201.568,284.300 201.610 C 284.245 201.615,283.345 202.247,282.300 203.014 M120.000 204.943 C 120.000 205.043,120.919 205.785,122.042 206.592 C 123.165 207.399,123.965 207.868,123.821 207.634 C 123.520 207.148,120.000 204.668,120.000 204.943 M277.900 206.214 C 276.855 206.980,276.000 207.696,276.000 207.803 C 276.000 207.911,276.900 207.352,278.000 206.562 C 279.709 205.334,280.323 204.768,279.900 204.810 C 279.845 204.815,278.945 205.447,277.900 206.214 M124.400 208.143 C 124.400 208.243,125.319 208.985,126.442 209.792 C 127.565 210.599,128.365 211.068,128.221 210.834 C 127.920 210.348,124.400 207.868,124.400 208.143 M272.100 210.435 C 268.869 212.804,268.380 213.541,269.206 214.800 C 269.490 215.233,269.534 215.063,269.367 214.188 C 269.148 213.045,269.322 212.841,272.368 210.648 C 275.152 208.643,275.947 207.973,275.500 208.008 C 275.445 208.012,273.915 209.104,272.100 210.435 M129.754 212.125 C 130.705 212.942,130.861 213.317,130.642 214.258 C 130.446 215.098,130.483 215.241,130.782 214.800 C 131.501 213.737,131.230 212.874,129.900 211.994 L 128.600 211.134 129.754 212.125 M198.662 264.300 C 198.560 264.465,199.162 264.600,200.000 264.600 C 200.838 264.600,201.440 264.465,201.338 264.300 C 201.236 264.135,200.634 264.000,200.000 264.000 C 199.366 264.000,198.764 264.135,198.662 264.300 M196.200 265.835 L 195.000 266.866 196.400 265.963 C 198.196 264.804,198.201 264.800,197.767 264.802 C 197.565 264.803,196.860 265.268,196.200 265.835 M202.033 264.930 C 202.125 265.001,202.830 265.466,203.600 265.963 L 205.000 266.866 203.800 265.835 C 203.140 265.268,202.435 264.803,202.233 264.802 C 202.032 264.801,201.942 264.858,202.033 264.930 M193.000 268.053 C 190.634 269.824,190.322 270.306,192.480 268.854 C 193.513 268.159,194.469 267.412,194.603 267.195 C 194.955 266.626,194.783 266.718,193.000 268.053 M205.379 267.166 C 205.680 267.652,209.200 270.132,209.200 269.857 C 209.200 269.757,208.281 269.015,207.158 268.208 C 206.035 267.401,205.235 266.932,205.379 267.166 M186.200 273.033 C 184.220 274.469,182.330 275.926,182.000 276.269 C 181.670 276.613,183.335 275.502,185.700 273.801 C 189.411 271.131,190.366 270.360,189.900 270.411 C 189.845 270.417,188.180 271.597,186.200 273.033 M210.000 270.527 C 210.000 270.626,211.890 272.078,214.200 273.753 C 216.510 275.429,218.400 276.716,218.400 276.615 C 218.400 276.514,217.095 275.473,215.500 274.301 C 211.295 271.211,210.000 270.322,210.000 270.527 M177.400 279.433 C 175.420 280.869,173.530 282.326,173.200 282.669 C 172.870 283.013,174.535 281.902,176.900 280.201 C 180.611 277.531,181.566 276.760,181.100 276.811 C 181.045 276.817,179.380 277.997,177.400 279.433 M218.800 276.927 C 218.800 277.026,220.690 278.478,223.000 280.153 C 225.310 281.829,227.200 283.116,227.200 283.015 C 227.200 282.914,225.895 281.873,224.300 280.701 C 220.095 277.611,218.800 276.722,218.800 276.927 M170.300 284.614 C 169.255 285.380,168.400 286.096,168.400 286.203 C 168.400 286.311,169.300 285.752,170.400 284.962 C 172.109 283.734,172.723 283.168,172.300 283.210 C 172.245 283.215,171.345 283.847,170.300 284.614 M227.600 283.343 C 227.600 283.443,228.519 284.185,229.642 284.992 C 230.765 285.799,231.565 286.268,231.421 286.034 C 231.120 285.548,227.600 283.068,227.600 283.343 M165.900 287.814 C 164.855 288.580,164.000 289.296,164.000 289.403 C 164.000 289.511,164.900 288.952,166.000 288.162 C 167.709 286.934,168.323 286.368,167.900 286.410 C 167.845 286.415,166.945 287.047,165.900 287.814 M232.000 286.543 C 232.000 286.643,232.919 287.385,234.042 288.192 C 235.165 288.999,235.965 289.468,235.821 289.234 C 235.520 288.748,232.000 286.268,232.000 286.543 M129.400 289.452 C 128.401 289.940,128.368 289.996,129.200 289.787 C 132.177 289.038,132.005 288.997,131.585 290.356 C 131.373 291.040,131.023 292.173,130.807 292.874 C 130.591 293.574,130.478 294.211,130.556 294.289 C 130.680 294.413,131.299 292.669,132.185 289.700 C 132.510 288.611,131.334 288.506,129.400 289.452 M267.815 289.700 C 268.701 292.669,269.320 294.413,269.444 294.289 C 269.522 294.211,269.409 293.574,269.193 292.874 C 268.977 292.173,268.627 291.040,268.415 290.356 C 267.995 288.998,267.834 289.036,270.800 289.790 C 271.453 289.956,271.333 289.828,270.454 289.422 C 268.436 288.489,267.483 288.590,267.815 289.700 M161.500 291.014 C 160.455 291.780,159.600 292.496,159.600 292.603 C 159.600 292.711,160.500 292.152,161.600 291.362 C 163.309 290.134,163.923 289.568,163.500 289.610 C 163.445 289.615,162.545 290.247,161.500 291.014 M236.400 289.743 C 236.400 289.843,237.319 290.585,238.442 291.392 C 239.565 292.199,240.365 292.668,240.221 292.434 C 239.920 291.948,236.400 289.468,236.400 289.743 M124.600 291.229 C 123.720 291.652,123.438 291.886,123.974 291.749 C 125.439 291.373,127.486 290.429,126.800 290.445 C 126.470 290.453,125.480 290.806,124.600 291.229 M273.826 290.965 C 275.844 291.844,277.126 292.059,275.400 291.229 C 274.520 290.806,273.530 290.453,273.200 290.445 C 272.870 290.438,273.152 290.672,273.826 290.965 M157.800 293.835 L 156.600 294.866 157.900 294.006 C 158.615 293.533,159.200 293.068,159.200 292.973 C 159.200 292.673,159.031 292.778,157.800 293.835 M240.800 292.946 C 240.800 293.056,241.340 293.530,242.000 294.000 C 242.660 294.470,243.200 294.764,243.200 294.654 C 243.200 294.544,242.660 294.070,242.000 293.600 C 241.340 293.130,240.800 292.836,240.800 292.946 M115.800 294.429 C 114.920 294.852,114.638 295.086,115.174 294.949 C 116.639 294.573,118.686 293.629,118.000 293.645 C 117.670 293.653,116.680 294.006,115.800 294.429 M282.626 294.165 C 284.644 295.044,285.926 295.259,284.200 294.429 C 283.320 294.006,282.330 293.653,282.000 293.645 C 281.670 293.638,281.952 293.872,282.626 294.165 M152.700 297.414 C 151.655 298.180,150.800 298.896,150.800 299.003 C 150.800 299.111,151.700 298.552,152.800 297.762 C 154.509 296.534,155.123 295.968,154.700 296.010 C 154.645 296.015,153.745 296.647,152.700 297.414 M245.200 296.146 C 245.200 296.256,245.740 296.730,246.400 297.200 C 247.060 297.670,247.600 297.964,247.600 297.854 C 247.600 297.744,247.060 297.270,246.400 296.800 C 245.740 296.330,245.200 296.036,245.200 296.146 M248.400 298.562 C 248.400 298.672,249.210 299.319,250.200 300.000 C 251.190 300.681,252.000 301.148,252.000 301.038 C 252.000 300.928,251.190 300.281,250.200 299.600 C 249.210 298.919,248.400 298.452,248.400 298.562 M149.000 300.235 L 147.800 301.266 149.100 300.406 C 149.815 299.933,150.400 299.468,150.400 299.373 C 150.400 299.073,150.231 299.178,149.000 300.235 M145.800 302.453 C 143.434 304.224,143.122 304.706,145.280 303.254 C 146.313 302.559,147.269 301.812,147.403 301.595 C 147.755 301.026,147.583 301.118,145.800 302.453 M252.579 301.566 C 252.880 302.052,256.400 304.532,256.400 304.257 C 256.400 304.157,255.481 303.415,254.358 302.608 C 253.235 301.801,252.435 301.332,252.579 301.566 M271.815 302.100 C 272.712 305.105,273.321 306.812,273.451 306.682 C 273.642 306.491,271.987 301.200,271.736 301.200 C 271.631 301.200,271.667 301.605,271.815 302.100 M126.444 306.244 C 125.980 307.724,125.670 309.004,125.756 309.089 C 125.841 309.175,126.291 308.035,126.756 306.556 C 127.220 305.076,127.530 303.796,127.444 303.711 C 127.359 303.625,126.909 304.765,126.444 306.244 M140.900 306.040 C 139.965 306.702,139.200 307.333,139.200 307.441 C 139.200 307.550,140.010 307.081,141.000 306.400 C 141.990 305.719,142.800 305.080,142.800 304.981 C 142.800 304.705,142.724 304.748,140.900 306.040 M257.200 304.927 C 257.200 305.026,259.090 306.478,261.400 308.153 C 263.710 309.829,265.600 311.116,265.600 311.015 C 265.600 310.914,264.295 309.873,262.700 308.701 C 258.495 305.611,257.200 304.722,257.200 304.927 M136.500 309.237 C 135.345 310.112,134.400 310.911,134.400 311.013 C 134.400 311.265,138.341 308.418,138.623 307.963 C 138.971 307.400,138.750 307.532,136.500 309.237 M130.200 313.833 C 128.220 315.269,126.330 316.726,126.000 317.069 C 125.670 317.413,127.335 316.302,129.700 314.601 C 133.411 311.931,134.366 311.160,133.900 311.211 C 133.845 311.217,132.180 312.397,130.200 313.833 M266.000 311.327 C 266.000 311.426,267.890 312.878,270.200 314.553 C 272.510 316.229,274.400 317.516,274.400 317.415 C 274.400 317.314,273.095 316.273,271.500 315.101 C 267.295 312.011,266.000 311.122,266.000 311.327 M276.171 315.250 C 276.283 315.828,276.492 316.773,276.634 317.350 C 276.922 318.515,276.199 318.792,275.199 317.900 C 274.722 317.475,274.718 317.504,275.168 318.100 C 276.681 320.099,277.628 318.554,276.578 315.800 C 276.242 314.920,276.059 314.673,276.171 315.250 M123.043 316.633 C 122.297 318.576,123.639 319.676,124.832 318.100 C 125.282 317.504,125.278 317.475,124.801 317.900 C 123.754 318.833,123.078 318.509,123.340 317.200 C 123.598 315.909,123.438 315.603,123.043 316.633 " stroke="none" fill="#fcecd7" fill-rule="evenodd"></path></g></svg>